<svg width="34" height="40" viewBox="0 0 34 40" fill="none" xmlns="http://www.w3.org/2000/svg">
<path d="M0 3C0 2.20435 0.31607 1.44129 0.87868 0.87868C1.44129 0.31607 2.20435 0 3 0H23.333L33.333 10V37C33.333 37.7956 33.0169 38.5587 32.4543 39.1213C31.8917 39.6839 31.1286 40 30.333 40H3C2.20435 40 1.44129 39.6839 0.87868 39.1213C0.31607 38.5587 0 37.7956 0 37V3Z" fill="#F5F5F5"/>
<path d="M0 28H33.333V37C33.333 37.7956 33.0169 38.5587 32.4543 39.1213C31.8917 39.6839 31.1286 40 30.333 40H3C2.20435 40 1.44129 39.6839 0.87868 39.1213C0.31607 38.5587 0 37.7956 0 37V28Z" fill="#348560"/>
<path fill-rule="evenodd" clip-rule="evenodd" d="M15.0202 33.6967C14.9362 32.7377 14.1312 32.2617 13.2282 32.2617C12.0592 32.2617 11.3242 33.0877 11.3242 34.2427C11.3242 35.3557 12.1362 36.1047 13.2282 36.1047C14.1942 36.1047 14.9502 35.5447 15.0552 34.5717H13.9002C13.8442 34.9567 13.6342 35.1947 13.2212 35.1947C12.7172 35.1947 12.5142 34.7117 12.5142 34.2427C12.5142 33.7387 12.6192 33.1717 13.2842 33.1717C13.5852 33.1717 13.8582 33.3887 13.8652 33.6967H15.0202ZM15.4386 34.8027C15.4736 35.8177 16.3556 36.1047 17.2166 36.1047C18.0356 36.1047 18.9596 35.7827 18.9596 34.8097C18.9596 34.5087 18.7706 33.9767 18.0356 33.8297C17.9301 33.8067 17.8152 33.7858 17.6984 33.7646C17.211 33.6759 16.6916 33.5814 16.6916 33.3047C16.6916 33.0527 17.0066 33.0317 17.2026 33.0317C17.3496 33.0317 17.4826 33.0597 17.5806 33.1227C17.6786 33.1857 17.7346 33.2837 17.7346 33.4377H18.8336C18.7916 32.4927 17.9586 32.2617 17.1606 32.2617C16.4466 32.2617 15.5016 32.4997 15.5016 33.3747C15.5016 34.2054 16.1756 34.3471 16.8372 34.4861C16.9561 34.511 17.0745 34.5359 17.1886 34.5647C17.1993 34.5672 17.2104 34.5697 17.2218 34.5723C17.2296 34.574 17.2376 34.5758 17.2458 34.5776C17.4594 34.6249 17.7696 34.6937 17.7696 34.9497C17.7696 35.2367 17.4406 35.3347 17.2096 35.3347C17.0416 35.3347 16.8806 35.2927 16.7686 35.2087C16.6496 35.1177 16.5726 34.9847 16.5726 34.8027H15.4386ZM21.7083 32.3667H22.9193L21.7013 35.9997H20.3293L19.1183 32.3667H20.3573L21.0223 34.7677H21.0363L21.7083 32.3667Z" fill="white"/>
<path d="M25.8648 9.99059C25.207 9.99059 24.5762 9.72931 24.1111 9.26422C23.646 8.79913 23.3848 8.16833 23.3848 7.51059V0.0585938L33.3308 9.99059H25.8648Z" fill="#DBDBDB"/>
<path fill-rule="evenodd" clip-rule="evenodd" d="M8 14.48H12.96V12H8V14.48ZM12.96 18.613H8V16.133H12.96V18.613ZM12.96 22.747H8V20.267H12.96V22.747ZM24.533 18.613H14.613V16.133H24.533V18.613ZM14.613 22.747H24.533V20.267H14.613V22.747ZM14.613 14.48V12H24.533V14.48H14.613Z" fill="#CFCFCF"/>
</svg>
