<svg width="34" height="40" viewBox="0 0 34 40" fill="none" xmlns="http://www.w3.org/2000/svg">
<path fill-rule="evenodd" clip-rule="evenodd" d="M0 3.99C0 2.93179 0.420374 1.91691 1.16864 1.16864C1.91691 0.420374 2.93179 0 3.99 0H23.275L33.25 9.975V35.91C33.25 36.9682 32.8296 37.9831 32.0814 38.7314C31.3331 39.4796 30.3182 39.9 29.26 39.9H3.99C2.93179 39.9 1.91691 39.4796 1.16864 38.7314C0.420374 37.9831 0 36.9682 0 35.91V3.99Z" fill="url(#paint0_linear)"/>
<path fill-rule="evenodd" clip-rule="evenodd" d="M7.98047 14.1307V12.4697H22.9425V14.1317H7.98047V14.1307ZM17.9555 15.7937H7.98047V17.4557H17.9555V15.7937ZM7.98047 20.7797H22.9425V19.1197H7.98047V20.7817V20.7797Z" fill="#CFCFCF"/>
<path d="M26.6242 9.96559C26.191 9.96559 25.762 9.88025 25.3619 9.71445C24.9617 9.54865 24.598 9.30563 24.2918 8.99928C23.9855 8.69293 23.7426 8.32924 23.5769 7.92899C23.4112 7.52874 23.326 7.09978 23.3262 6.66659V0.0585938L33.2462 9.96559H26.6242Z" fill="#DBDBDB"/>
<defs>
<linearGradient id="paint0_linear" x1="0" y1="0" x2="0" y2="39.9" gradientUnits="userSpaceOnUse">
<stop stop-color="white"/>
<stop offset="1" stop-color="#DBDBDB"/>
</linearGradient>
</defs>
</svg>
