<svg width="34" height="40" viewBox="0 0 34 40" fill="none" xmlns="http://www.w3.org/2000/svg">
<path fill-rule="evenodd" clip-rule="evenodd" d="M0 3C0 2.20435 0.31607 1.44129 0.87868 0.87868C1.44129 0.31607 2.20435 0 3 0H23.333L33.333 10V37C33.333 37.7956 33.0169 38.5587 32.4543 39.1213C31.8917 39.6839 31.1286 40 30.333 40H3C2.20435 40 1.44129 39.6839 0.87868 39.1213C0.31607 38.5587 0 37.7956 0 37V3Z" fill="url(#paint0_linear)"/>
<path d="M25.8648 9.99059C25.207 9.99059 24.5762 9.72931 24.1111 9.26422C23.646 8.79913 23.3848 8.16833 23.3848 7.51059V0.0585938L33.3308 9.99059H25.8648Z" fill="#AB381D"/>
<path fill-rule="evenodd" clip-rule="evenodd" d="M9.667 10.667H19.667C20.583 10.667 21.333 11.417 21.333 12.333V19C21.333 19.917 20.583 20.667 19.667 20.667H9.667C8.75 20.667 8 19.917 8 19V12.333C8 11.417 8.75 10.667 9.667 10.667ZM23 14H24.667V22.333C24.667 23.25 23.917 24 23 24H11.333V22.333H23V14ZM19.667 19H9.667V12.333H19.667V19Z" fill="white" fill-opacity="0.4"/>
<path fill-rule="evenodd" clip-rule="evenodd" d="M21.2744 32.6176H22.0094V33.3876H21.2744V35.0396C21.2744 35.3266 21.4424 35.3896 21.7014 35.3896C21.7496 35.3896 21.7994 35.3862 21.8501 35.3828C21.9026 35.3792 21.956 35.3756 22.0094 35.3756V36.2506C21.9164 36.2536 21.8234 36.2604 21.7304 36.2673C21.6064 36.2764 21.4824 36.2856 21.3584 36.2856C20.3434 36.2856 20.0844 35.9916 20.0844 35.0046V33.3876H19.4824V32.6176H20.0844V31.5186H21.2744V32.6176ZM12.876 33.4227C13.401 33.4227 13.583 33.9337 13.583 34.3957C13.583 34.8927 13.401 35.4457 12.869 35.4457C12.33 35.4457 12.148 35.0327 12.148 34.3957C12.148 33.6467 12.554 33.4227 12.876 33.4227ZM11 37.4687H12.19V35.8587H12.204C12.449 36.1877 12.792 36.3557 13.24 36.3557C14.269 36.3557 14.773 35.4597 14.773 34.5147C14.773 33.4927 14.29 32.5127 13.149 32.5127C12.729 32.5127 12.379 32.6947 12.148 33.0377H12.134V32.6177H11V37.4687ZM17.2852 33.4227C17.8102 33.4227 17.9922 33.9337 17.9922 34.3957C17.9922 34.8927 17.8102 35.4457 17.2782 35.4457C16.7392 35.4457 16.5572 35.0327 16.5572 34.3957C16.5572 33.6467 16.9632 33.4227 17.2852 33.4227ZM15.4092 37.4687H16.5992V35.8587H16.6132C16.8582 36.1877 17.2012 36.3557 17.6492 36.3557C18.6782 36.3557 19.1822 35.4597 19.1822 34.5147C19.1822 33.4927 18.6992 32.5127 17.5582 32.5127C17.1382 32.5127 16.7882 32.6947 16.5572 33.0377H16.5432V32.6177H15.4092V37.4687Z" fill="white"/>
<defs>
<linearGradient id="paint0_linear" x1="0" y1="0" x2="0" y2="40" gradientUnits="userSpaceOnUse">
<stop stop-color="#DC7259"/>
<stop offset="1" stop-color="#D14423"/>
</linearGradient>
</defs>
</svg>
