<svg width="34" height="40" viewBox="0 0 34 40" fill="none" xmlns="http://www.w3.org/2000/svg">
<path fill-rule="evenodd" clip-rule="evenodd" d="M0 3C0 2.20435 0.31607 1.44129 0.87868 0.87868C1.44129 0.31607 2.20435 0 3 0H23.333L33.333 10V37C33.333 37.7956 33.0169 38.5587 32.4543 39.1213C31.8917 39.6839 31.1286 40 30.333 40H3C2.20435 40 1.44129 39.6839 0.87868 39.1213C0.31607 38.5587 0 37.7956 0 37V3Z" fill="url(#paint0_linear)"/>
<path d="M25.8648 9.99059C25.207 9.99059 24.5762 9.72931 24.1111 9.26422C23.646 8.79913 23.3848 8.16833 23.3848 7.51059V0.0585938L33.3308 9.99059H25.8648Z" fill="#AB381D"/>
<path fill-rule="evenodd" clip-rule="evenodd" d="M9.667 10.667H19.667C20.583 10.667 21.333 11.417 21.333 12.333V19C21.333 19.917 20.583 20.667 19.667 20.667H9.667C8.75 20.667 8 19.917 8 19V12.333C8 11.417 8.75 10.667 9.667 10.667ZM23 14H24.667V22.333C24.667 23.25 23.917 24 23 24H11.333V22.333H23V14ZM19.667 19H9.667V12.333H19.667V19Z" fill="white" fill-opacity="0.4"/>
<path fill-rule="evenodd" clip-rule="evenodd" d="M20.7594 32.6176H20.0244V31.5186H18.8344V32.6176H18.2324V33.3876H18.8344V35.0046C18.8344 35.9916 19.0934 36.2856 20.1084 36.2856C20.2324 36.2856 20.3564 36.2764 20.4804 36.2673C20.5734 36.2604 20.6664 36.2536 20.7594 36.2506V35.3756C20.706 35.3756 20.6526 35.3792 20.6001 35.3828C20.5494 35.3862 20.4996 35.3896 20.4514 35.3896C20.1924 35.3896 20.0244 35.3266 20.0244 35.0396V33.3876H20.7594V32.6176ZM12.333 34.3957C12.333 33.9337 12.151 33.4227 11.626 33.4227C11.304 33.4227 10.898 33.6467 10.898 34.3957C10.898 35.0327 11.08 35.4457 11.619 35.4457C12.151 35.4457 12.333 34.8927 12.333 34.3957ZM10.94 37.4687H9.75V32.6177H10.884V33.0377H10.898C11.129 32.6947 11.479 32.5127 11.899 32.5127C13.04 32.5127 13.523 33.4927 13.523 34.5147C13.523 35.4597 13.019 36.3557 11.99 36.3557C11.542 36.3557 11.199 36.1877 10.954 35.8587H10.94V37.4687ZM16.7422 34.3957C16.7422 33.9337 16.5602 33.4227 16.0352 33.4227C15.7132 33.4227 15.3072 33.6467 15.3072 34.3957C15.3072 35.0327 15.4892 35.4457 16.0282 35.4457C16.5602 35.4457 16.7422 34.8927 16.7422 34.3957ZM15.3492 37.4687H14.1592V32.6177H15.2932V33.0377H15.3072C15.5382 32.6947 15.8882 32.5127 16.3082 32.5127C17.4492 32.5127 17.9322 33.4927 17.9322 34.5147C17.9322 35.4597 17.4282 36.3557 16.3992 36.3557C15.9512 36.3557 15.6082 36.1877 15.3632 35.8587H15.3492V37.4687ZM22.1571 36.2507H20.8411L22.1011 34.3467L20.9461 32.6177H22.2621L22.7731 33.4857L23.2841 32.6177H24.5441L23.4101 34.3257L24.6981 36.2507H23.3821L22.7521 35.2007L22.1571 36.2507Z" fill="white"/>
<defs>
<linearGradient id="paint0_linear" x1="0" y1="0" x2="0" y2="40" gradientUnits="userSpaceOnUse">
<stop stop-color="#DC7259"/>
<stop offset="1" stop-color="#D14423"/>
</linearGradient>
</defs>
</svg>
