<svg width="34" height="40" viewBox="0 0 34 40" fill="none" xmlns="http://www.w3.org/2000/svg">
<path d="M0 3C0 2.20435 0.31607 1.44129 0.87868 0.87868C1.44129 0.31607 2.20435 0 3 0H23.333L33.333 10V37C33.333 37.7956 33.0169 38.5587 32.4543 39.1213C31.8917 39.6839 31.1286 40 30.333 40H3C2.20435 40 1.44129 39.6839 0.87868 39.1213C0.31607 38.5587 0 37.7956 0 37V3Z" fill="#F5F5F5"/>
<path d="M0 28H33.333V37C33.333 37.7956 33.0169 38.5587 32.4543 39.1213C31.8917 39.6839 31.1286 40 30.333 40H3C2.20435 40 1.44129 39.6839 0.87868 39.1213C0.31607 38.5587 0 37.7956 0 37V28Z" fill="#D93831"/>
<path d="M25.8648 9.99059C25.207 9.99059 24.5762 9.72931 24.1111 9.26422C23.646 8.79913 23.3848 8.16833 23.3848 7.51059V0.0585938L33.3308 9.99059H25.8648Z" fill="#DBDBDB"/>
<path fill-rule="evenodd" clip-rule="evenodd" d="M14.9899 32.3676H14.2549V31.2686H13.0649V32.3676H12.4629V33.1376H13.0649V34.7546C13.0649 35.7416 13.3239 36.0356 14.3389 36.0356C14.4629 36.0356 14.5869 36.0264 14.7109 36.0173C14.8039 36.0104 14.8969 36.0036 14.9899 36.0006V35.1256C14.9365 35.1256 14.8832 35.1292 14.8307 35.1327L14.8306 35.1328C14.7799 35.1362 14.73 35.1396 14.6819 35.1396C14.4229 35.1396 14.2549 35.0766 14.2549 34.7896V33.1376H14.9899V32.3676ZM15.0717 36.0007H16.3877L16.9827 34.9507L17.6127 36.0007H18.9287L17.6407 34.0757L18.7747 32.3677H17.5147L17.0037 33.2357L16.4927 32.3677H15.1767L16.3317 34.0967L15.0717 36.0007ZM20.7354 32.3676H21.4704V33.1376H20.7354V34.7896C20.7354 35.0766 20.9034 35.1396 21.1624 35.1396C21.2105 35.1396 21.2604 35.1362 21.3111 35.1328C21.3635 35.1292 21.417 35.1256 21.4704 35.1256V36.0006C21.3774 36.0036 21.2844 36.0104 21.1914 36.0173C21.0674 36.0264 20.9434 36.0356 20.8194 36.0356C19.8044 36.0356 19.5454 35.7416 19.5454 34.7546V33.1376H18.9434V32.3676H19.5454V31.2686H20.7354V32.3676Z" fill="white"/>
<path fill-rule="evenodd" clip-rule="evenodd" d="M7.98047 14.1307V12.4697H22.9425V14.1317H7.98047V14.1307ZM17.9555 15.7937H7.98047V17.4557H17.9555V15.7937ZM7.98047 20.7797H22.9425V19.1197H7.98047V20.7817V20.7797Z" fill="#CFCFCF"/>
</svg>
