<svg width="34" height="40" viewBox="0 0 34 40" fill="none" xmlns="http://www.w3.org/2000/svg">
<path fill-rule="evenodd" clip-rule="evenodd" d="M0 4C0 2.93913 0.421427 1.92172 1.17157 1.17157C1.92172 0.421427 2.93913 0 4 0H23.333L33.333 10V36C33.333 37.0609 32.9116 38.0783 32.1614 38.8284C31.4113 39.5786 30.3939 40 29.333 40H4C2.93913 40 1.92172 39.5786 1.17157 38.8284C0.421427 38.0783 0 37.0609 0 36V4Z" fill="url(#paint0_linear)"/>
<path d="M26.6918 9.99059C25.8147 9.99059 24.9735 9.64218 24.3534 9.022C23.7332 8.40181 23.3848 7.56066 23.3848 6.68359V0.0585938L33.3308 9.99059H26.6908H26.6918Z" fill="#16613F"/>
<path d="M13.175 34.3105L11.791 36.3335H12.975L13.778 35.1215L14.581 36.3335H15.787L14.366 34.2875L15.63 32.4875H14.462L13.792 33.4915L13.116 32.4875H11.91L13.174 34.3105H13.175ZM16.219 31.0215V36.3335H17.276V31.0215H16.219ZM18.926 35.0835H17.922C17.932 35.3415 17.988 35.5575 18.092 35.7315C18.202 35.8995 18.338 36.0365 18.502 36.1405C18.67 36.2445 18.862 36.3185 19.075 36.3635C19.5018 36.4519 19.9422 36.4519 20.369 36.3635C20.5698 36.3287 20.762 36.2553 20.935 36.1475C21.098 36.0435 21.23 35.9075 21.329 35.7385C21.433 35.5655 21.485 35.3515 21.485 35.0985C21.4899 34.9515 21.4577 34.8056 21.3912 34.6743C21.3248 34.543 21.2264 34.4306 21.105 34.3475C20.9854 34.2602 20.8528 34.1924 20.712 34.1465C20.5655 34.096 20.4162 34.0536 20.265 34.0195C20.1191 33.9856 19.9728 33.9536 19.826 33.9235C19.6956 33.897 19.5665 33.8646 19.439 33.8265C19.3415 33.7933 19.2507 33.7428 19.171 33.6775C19.1375 33.6495 19.1107 33.6142 19.0927 33.5744C19.0747 33.5346 19.0659 33.4912 19.067 33.4475C19.067 33.3675 19.087 33.3055 19.127 33.2615C19.1644 33.2135 19.2128 33.1751 19.268 33.1495C19.3298 33.124 19.3953 33.1088 19.462 33.1045C19.531 33.0945 19.596 33.0905 19.655 33.0905C19.843 33.0905 20.007 33.1275 20.146 33.2015C20.285 33.2715 20.362 33.4075 20.376 33.6115H21.381C21.3716 33.4166 21.3154 33.2268 21.217 33.0583C21.1187 32.8898 20.9811 32.7475 20.816 32.6435C20.6529 32.546 20.4738 32.4783 20.287 32.4435C19.8866 32.3636 19.4744 32.3636 19.074 32.4435C18.876 32.4775 18.698 32.5415 18.539 32.6365C18.38 32.7255 18.251 32.8495 18.152 33.0085C18.058 33.1665 18.011 33.3705 18.011 33.6185C18.011 33.7865 18.046 33.9305 18.115 34.0495C18.185 34.1635 18.276 34.2605 18.39 34.3395C18.504 34.4145 18.633 34.4765 18.777 34.5255C18.926 34.5705 19.077 34.6105 19.231 34.6455C19.608 34.7245 19.901 34.8035 20.109 34.8825C20.322 34.9625 20.429 35.0815 20.429 35.2405C20.4318 35.3249 20.4084 35.408 20.362 35.4785C20.3158 35.5391 20.2576 35.5895 20.191 35.6265C20.0514 35.7004 19.8949 35.7366 19.737 35.7315C19.633 35.7315 19.531 35.7185 19.432 35.6935C19.3421 35.6708 19.2566 35.6333 19.179 35.5825C19.1047 35.528 19.0416 35.4598 18.993 35.3815C18.9465 35.2892 18.9235 35.1868 18.926 35.0835Z" fill="white"/>
<path fill-rule="evenodd" clip-rule="evenodd" d="M8.33203 14.167H13.332V11.667H8.33203V14.167ZM13.332 18.333H8.33203V15.833H13.332V18.333ZM13.332 22.5H8.33203V20H13.332V22.5ZM24.999 18.333H14.999V15.833H24.999V18.333ZM14.999 22.5H24.999V20H14.999V22.5ZM14.999 14.167V11.667H24.999V14.167H14.999Z" fill="white" fill-opacity="0.4"/>
<defs>
<linearGradient id="paint0_linear" x1="0" y1="0" x2="0" y2="40" gradientUnits="userSpaceOnUse">
<stop stop-color="#529778"/>
<stop offset="1" stop-color="#1A754C"/>
</linearGradient>
</defs>
</svg>
