<svg width="16" height="16" viewBox="0 0 16 16" fill="none" xmlns="http://www.w3.org/2000/svg">
<path d="M6.66667 9.33333H9.33334C9.51015 9.33333 9.67972 9.2631 9.80474 9.13807C9.92976 9.01305 10 8.84348 10 8.66667C10 8.48986 9.92976 8.32029 9.80474 8.19526C9.67972 8.07024 9.51015 8 9.33334 8H6.66667C6.48986 8 6.32029 8.07024 6.19526 8.19526C6.07024 8.32029 6 8.48986 6 8.66667C6 8.84348 6.07024 9.01305 6.19526 9.13807C6.32029 9.2631 6.48986 9.33333 6.66667 9.33333ZM12.6667 2H3.33334C2.8029 2 2.2942 2.21071 1.91912 2.58579C1.54405 2.96086 1.33334 3.46957 1.33334 4V6C1.33334 6.17681 1.40357 6.34638 1.5286 6.4714C1.65362 6.59643 1.82319 6.66667 2 6.66667H2.66667V12C2.66667 12.5304 2.87738 13.0391 3.25246 13.4142C3.62753 13.7893 4.13624 14 4.66667 14H11.3333C11.8638 14 12.3725 13.7893 12.7476 13.4142C13.1226 13.0391 13.3333 12.5304 13.3333 12V6.66667H14C14.1768 6.66667 14.3464 6.59643 14.4714 6.4714C14.5964 6.34638 14.6667 6.17681 14.6667 6V4C14.6667 3.46957 14.456 2.96086 14.0809 2.58579C13.7058 2.21071 13.1971 2 12.6667 2ZM12 12C12 12.1768 11.9298 12.3464 11.8047 12.4714C11.6797 12.5964 11.5101 12.6667 11.3333 12.6667H4.66667C4.48986 12.6667 4.32029 12.5964 4.19526 12.4714C4.07024 12.3464 4 12.1768 4 12V6.66667H12V12ZM13.3333 5.33333H2.66667V4C2.66667 3.82319 2.73691 3.65362 2.86193 3.5286C2.98696 3.40357 3.15652 3.33333 3.33334 3.33333H12.6667C12.8435 3.33333 13.0131 3.40357 13.1381 3.5286C13.2631 3.65362 13.3333 3.82319 13.3333 4V5.33333Z" fill="#51545C"/>
</svg>
