<svg width="14" height="14" viewBox="0 0 14 14" fill="none" xmlns="http://www.w3.org/2000/svg">
<path d="M7.00015 12.1155C5.98842 12.1155 4.99942 11.8155 4.1582 11.2534C3.31698 10.6914 2.66132 9.89244 2.27415 8.95773C1.88698 8.02301 1.78568 6.99448 1.98306 6.00219C2.18044 5.0099 2.66763 4.09843 3.38303 3.38303C4.09843 2.66763 5.0099 2.18044 6.00219 1.98306C6.99448 1.78568 8.02301 1.88698 8.95773 2.27415C9.89244 2.66132 10.6914 3.31698 11.2534 4.1582C11.8155 4.99942 12.1155 5.98843 12.1155 7.00015C12.1141 8.3564 11.5747 9.65669 10.6157 10.6157C9.65669 11.5747 8.3564 12.1141 7.00015 12.1155ZM7.00015 2.42323C6.09492 2.42323 5.21002 2.69166 4.45735 3.19458C3.70468 3.6975 3.11804 4.41232 2.77163 5.24864C2.42521 6.08496 2.33457 7.00523 2.51117 7.89307C2.68778 8.7809 3.12369 9.59643 3.76378 10.2365C4.40387 10.8766 5.2194 11.3125 6.10724 11.4891C6.99508 11.6657 7.91534 11.5751 8.75166 11.2287C9.58799 10.8823 10.3028 10.2956 10.8057 9.54296C11.3086 8.79028 11.5771 7.90538 11.5771 7.00015C11.5742 5.78715 11.0911 4.62464 10.2334 3.76692C9.37566 2.9092 8.21315 2.42607 7.00015 2.42323Z" fill="#1D1D1B"/>
<path d="M10.2957 7.2692H7.50105C7.28684 7.2692 7.0814 7.1841 6.92993 7.03263C6.77846 6.88116 6.69336 6.67572 6.69336 6.46151V5.14228C6.69336 5.07087 6.72172 5.00239 6.77222 4.9519C6.82271 4.90141 6.89119 4.87305 6.96259 4.87305C7.03399 4.87305 7.10247 4.90141 7.15297 4.9519C7.20346 5.00239 7.23182 5.07087 7.23182 5.14228V6.46151C7.23182 6.53291 7.26019 6.60139 7.31068 6.65188C7.36117 6.70237 7.42965 6.73074 7.50105 6.73074H10.2957C10.3671 6.73074 10.4356 6.7591 10.486 6.80959C10.5365 6.86009 10.5649 6.92857 10.5649 6.99997C10.5649 7.07137 10.5365 7.13985 10.486 7.19034C10.4356 7.24084 10.3671 7.2692 10.2957 7.2692Z" fill="#1D1D1B"/>
</svg>
