<svg width="16" height="16" viewBox="0 0 16 16" fill="none" xmlns="http://www.w3.org/2000/svg">
<path fill-rule="evenodd" clip-rule="evenodd" d="M3.5286 7.52876C3.78895 7.26841 4.21106 7.26841 4.47141 7.52876L7.13807 10.1954C7.39842 10.4558 7.39842 10.8779 7.13807 11.1382C6.87772 11.3986 6.45561 11.3986 6.19526 11.1382L3.5286 8.47157C3.26825 8.21122 3.26825 7.78911 3.5286 7.52876Z" fill="#7A7A7A"/>
<path fill-rule="evenodd" clip-rule="evenodd" d="M12.4714 4.86177C12.7318 5.12212 12.7318 5.54423 12.4714 5.80458L7.13807 11.1379C6.87772 11.3983 6.45561 11.3983 6.19526 11.1379C5.93491 10.8776 5.93491 10.4555 6.19526 10.1951L11.5286 4.86177C11.7889 4.60142 12.2111 4.60142 12.4714 4.86177Z" fill="#7A7A7A"/>
</svg>
