<svg width="20" height="20" viewBox="0 0 20 20" fill="none" xmlns="http://www.w3.org/2000/svg">
<path d="M7.49999 8.33335H8.33333C8.55434 8.33335 8.7663 8.24556 8.92258 8.08928C9.07886 7.933 9.16666 7.72103 9.16666 7.50002C9.16666 7.27901 9.07886 7.06705 8.92258 6.91077C8.7663 6.75448 8.55434 6.66669 8.33333 6.66669H7.49999C7.27898 6.66669 7.06702 6.75448 6.91074 6.91077C6.75446 7.06705 6.66666 7.27901 6.66666 7.50002C6.66666 7.72103 6.75446 7.933 6.91074 8.08928C7.06702 8.24556 7.27898 8.33335 7.49999 8.33335ZM7.49999 10C7.27898 10 7.06702 10.0878 6.91074 10.2441C6.75446 10.4004 6.66666 10.6123 6.66666 10.8334C6.66666 11.0544 6.75446 11.2663 6.91074 11.4226C7.06702 11.5789 7.27898 11.6667 7.49999 11.6667H12.5C12.721 11.6667 12.933 11.5789 13.0892 11.4226C13.2455 11.2663 13.3333 11.0544 13.3333 10.8334C13.3333 10.6123 13.2455 10.4004 13.0892 10.2441C12.933 10.0878 12.721 10 12.5 10H7.49999ZM16.6667 7.45002C16.658 7.37347 16.6412 7.29805 16.6167 7.22502V7.15002C16.5766 7.06434 16.5231 6.98557 16.4583 6.91669L11.4583 1.91669C11.3894 1.85187 11.3107 1.79842 11.225 1.75835C11.2001 1.75482 11.1749 1.75482 11.15 1.75835C11.0653 1.7098 10.9718 1.67864 10.875 1.66669H5.83333C5.17029 1.66669 4.5344 1.93008 4.06556 2.39892C3.59672 2.86776 3.33333 3.50365 3.33333 4.16669V15.8334C3.33333 16.4964 3.59672 17.1323 4.06556 17.6011C4.5344 18.07 5.17029 18.3334 5.83333 18.3334H14.1667C14.8297 18.3334 15.4656 18.07 15.9344 17.6011C16.4033 17.1323 16.6667 16.4964 16.6667 15.8334V7.50002C16.6667 7.50002 16.6667 7.50002 16.6667 7.45002ZM11.6667 4.50835L13.825 6.66669H12.5C12.279 6.66669 12.067 6.57889 11.9107 6.42261C11.7545 6.26633 11.6667 6.05437 11.6667 5.83335V4.50835ZM15 15.8334C15 16.0544 14.9122 16.2663 14.7559 16.4226C14.5996 16.5789 14.3877 16.6667 14.1667 16.6667H5.83333C5.61231 16.6667 5.40035 16.5789 5.24407 16.4226C5.08779 16.2663 4.99999 16.0544 4.99999 15.8334V4.16669C4.99999 3.94567 5.08779 3.73371 5.24407 3.57743C5.40035 3.42115 5.61231 3.33335 5.83333 3.33335H9.99999V5.83335C9.99999 6.4964 10.2634 7.13228 10.7322 7.60112C11.2011 8.06996 11.837 8.33335 12.5 8.33335H15V15.8334ZM12.5 13.3334H7.49999C7.27898 13.3334 7.06702 13.4212 6.91074 13.5774C6.75446 13.7337 6.66666 13.9457 6.66666 14.1667C6.66666 14.3877 6.75446 14.5997 6.91074 14.7559C7.06702 14.9122 7.27898 15 7.49999 15H12.5C12.721 15 12.933 14.9122 13.0892 14.7559C13.2455 14.5997 13.3333 14.3877 13.3333 14.1667C13.3333 13.9457 13.2455 13.7337 13.0892 13.5774C12.933 13.4212 12.721 13.3334 12.5 13.3334Z" fill="#EA8D51"/>
</svg>
