<svg width="20" height="20" viewBox="0 0 20 20" fill="none" xmlns="http://www.w3.org/2000/svg">
<path d="M11.9667 11.8584C11.4096 12.3076 10.7156 12.5525 9.99999 12.5525C9.28442 12.5525 8.5904 12.3076 8.03333 11.8584C7.86315 11.717 7.64375 11.6489 7.42339 11.6692C7.20303 11.6895 6.99978 11.7966 6.85833 11.9667C6.71688 12.1369 6.64883 12.3563 6.66914 12.5767C6.68946 12.797 6.79648 13.0003 6.96666 13.1417C7.81777 13.8523 8.89129 14.2414 9.99999 14.2414C11.1087 14.2414 12.1822 13.8523 13.0333 13.1417C13.2035 13.0003 13.3105 12.797 13.3308 12.5767C13.3512 12.3563 13.2831 12.1369 13.1417 11.9667C13.0716 11.8825 12.9857 11.8128 12.8887 11.7618C12.7918 11.7107 12.6857 11.6793 12.5766 11.6692C12.3562 11.6489 12.1368 11.717 11.9667 11.8584ZM7.49999 9.16675C7.66481 9.16675 7.82593 9.11787 7.96297 9.02631C8.10001 8.93474 8.20682 8.80459 8.26989 8.65232C8.33297 8.50005 8.34947 8.33249 8.31731 8.17084C8.28516 8.00919 8.20579 7.8607 8.08925 7.74416C7.9727 7.62762 7.82422 7.54825 7.66257 7.51609C7.50092 7.48394 7.33336 7.50044 7.18109 7.56352C7.02882 7.62659 6.89867 7.7334 6.8071 7.87044C6.71553 8.00748 6.66666 8.1686 6.66666 8.33342C6.66666 8.55443 6.75446 8.76639 6.91074 8.92267C7.06702 9.07895 7.27898 9.16675 7.49999 9.16675ZM12.5 7.50008C12.3352 7.50008 12.1741 7.54896 12.037 7.64052C11.9 7.73209 11.7932 7.86224 11.7301 8.01451C11.667 8.16678 11.6505 8.33434 11.6827 8.49599C11.7148 8.65764 11.7942 8.80613 11.9107 8.92267C12.0273 9.03921 12.1758 9.11858 12.3374 9.15074C12.4991 9.18289 12.6666 9.16639 12.8189 9.10331C12.9712 9.04024 13.1013 8.93343 13.1929 8.79639C13.2845 8.65935 13.3333 8.49823 13.3333 8.33342C13.3333 8.1124 13.2455 7.90044 13.0892 7.74416C12.933 7.58788 12.721 7.50008 12.5 7.50008ZM9.99999 1.66675C8.35182 1.66675 6.74065 2.15549 5.37024 3.07117C3.99983 3.98685 2.93173 5.28834 2.301 6.81105C1.67027 8.33377 1.50524 10.0093 1.82678 11.6258C2.14833 13.2423 2.942 14.7272 4.10744 15.8926C5.27287 17.0581 6.75773 17.8517 8.37424 18.1733C9.99075 18.4948 11.6663 18.3298 13.189 17.6991C14.7117 17.0683 16.0132 16.0002 16.9289 14.6298C17.8446 13.2594 18.3333 11.6483 18.3333 10.0001C18.3333 8.90573 18.1178 7.8221 17.699 6.81105C17.2802 5.80001 16.6664 4.88135 15.8925 4.10752C15.1187 3.3337 14.2001 2.71987 13.189 2.30109C12.178 1.8823 11.0943 1.66675 9.99999 1.66675ZM9.99999 16.6667C8.68145 16.6667 7.39252 16.2758 6.29619 15.5432C5.19986 14.8107 4.34538 13.7695 3.8408 12.5513C3.33621 11.3331 3.20419 9.99269 3.46143 8.69948C3.71866 7.40627 4.3536 6.21839 5.28595 5.28604C6.2183 4.35369 7.40619 3.71875 8.69939 3.46151C9.9926 3.20428 11.333 3.3363 12.5512 3.84088C13.7694 4.34547 14.8106 5.19995 15.5431 6.29628C16.2757 7.39261 16.6667 8.68154 16.6667 10.0001C16.6667 11.7682 15.9643 13.4639 14.714 14.7141C13.4638 15.9644 11.7681 16.6667 9.99999 16.6667Z" fill="#535F89"/>
</svg>
