<svg width="16" height="16" viewBox="0 0 16 16" fill="none" xmlns="http://www.w3.org/2000/svg">
<path d="M5.99999 6.66659H6.66666C6.84347 6.66659 7.01304 6.59635 7.13806 6.47132C7.26308 6.3463 7.33332 6.17673 7.33332 5.99992C7.33332 5.82311 7.26308 5.65354 7.13806 5.52851C7.01304 5.40349 6.84347 5.33325 6.66666 5.33325H5.99999C5.82318 5.33325 5.65361 5.40349 5.52859 5.52851C5.40356 5.65354 5.33332 5.82311 5.33332 5.99992C5.33332 6.17673 5.40356 6.3463 5.52859 6.47132C5.65361 6.59635 5.82318 6.66659 5.99999 6.66659ZM5.99999 7.99992C5.82318 7.99992 5.65361 8.07016 5.52859 8.19518C5.40356 8.32021 5.33332 8.48977 5.33332 8.66659C5.33332 8.8434 5.40356 9.01297 5.52859 9.13799C5.65361 9.26301 5.82318 9.33325 5.99999 9.33325H9.99999C10.1768 9.33325 10.3464 9.26301 10.4714 9.13799C10.5964 9.01297 10.6667 8.8434 10.6667 8.66659C10.6667 8.48977 10.5964 8.32021 10.4714 8.19518C10.3464 8.07016 10.1768 7.99992 9.99999 7.99992H5.99999ZM13.3333 5.95992C13.3264 5.89867 13.313 5.83834 13.2933 5.77992V5.71992C13.2613 5.65137 13.2185 5.58836 13.1667 5.53325L9.16666 1.53325C9.11155 1.4814 9.04854 1.43864 8.97999 1.40659C8.96009 1.40376 8.93989 1.40376 8.91999 1.40659C8.85227 1.36775 8.77747 1.34281 8.69999 1.33325H4.66666C4.13622 1.33325 3.62752 1.54397 3.25244 1.91904C2.87737 2.29411 2.66666 2.80282 2.66666 3.33325V12.6666C2.66666 13.197 2.87737 13.7057 3.25244 14.0808C3.62752 14.4559 4.13622 14.6666 4.66666 14.6666H11.3333C11.8638 14.6666 12.3725 14.4559 12.7475 14.0808C13.1226 13.7057 13.3333 13.197 13.3333 12.6666V5.99992C13.3333 5.99992 13.3333 5.99992 13.3333 5.95992ZM9.33332 3.60659L11.06 5.33325H9.99999C9.82318 5.33325 9.65361 5.26301 9.52858 5.13799C9.40356 5.01297 9.33332 4.8434 9.33332 4.66659V3.60659ZM12 12.6666C12 12.8434 11.9298 13.013 11.8047 13.138C11.6797 13.263 11.5101 13.3333 11.3333 13.3333H4.66666C4.48985 13.3333 4.32028 13.263 4.19525 13.138C4.07023 13.013 3.99999 12.8434 3.99999 12.6666V3.33325C3.99999 3.15644 4.07023 2.98687 4.19525 2.86185C4.32028 2.73682 4.48985 2.66659 4.66666 2.66659H7.99999V4.66659C7.99999 5.19702 8.2107 5.70573 8.58578 6.0808C8.96085 6.45587 9.46956 6.66659 9.99999 6.66659H12V12.6666ZM9.99999 10.6666H5.99999C5.82318 10.6666 5.65361 10.7368 5.52859 10.8618C5.40356 10.9869 5.33332 11.1564 5.33332 11.3333C5.33332 11.5101 5.40356 11.6796 5.52859 11.8047C5.65361 11.9297 5.82318 11.9999 5.99999 11.9999H9.99999C10.1768 11.9999 10.3464 11.9297 10.4714 11.8047C10.5964 11.6796 10.6667 11.5101 10.6667 11.3333C10.6667 11.1564 10.5964 10.9869 10.4714 10.8618C10.3464 10.7368 10.1768 10.6666 9.99999 10.6666Z" fill="#EA8D51"/>
</svg>
