<svg width="61" height="12" viewBox="0 0 61 12" fill="none" xmlns="http://www.w3.org/2000/svg">
<path d="M14.44 10H15.25L15.91 6.92H19.14L19.3 6.18H16.07L16.56 3.83H20.23L20.38 3.1H15.91L14.44 10ZM21.7645 10.1C23.0245 10.1 24.1245 9.25 24.4645 7.66C24.8245 5.98 24.0345 5.06 22.7245 5.06C21.4545 5.06 20.3845 5.91 20.0445 7.5C19.6945 9.18 20.4445 10.1 21.7645 10.1ZM21.8145 9.41C20.9545 9.41 20.5245 8.86 20.7745 7.66C21.0545 6.37 21.7945 5.74 22.6945 5.74C23.5545 5.74 23.9845 6.3 23.7345 7.5C23.4545 8.79 22.7145 9.41 21.8145 9.41ZM25.1489 10H25.9189L26.4189 7.64C26.6889 6.35 27.4889 5.79 28.1989 5.79C28.3389 5.79 28.5089 5.81 28.6689 5.88L28.7789 5.14C28.6389 5.09 28.4589 5.05 28.2689 5.05C27.6489 5.05 27.1389 5.39 26.8089 5.97H26.7789L26.9689 5.12H26.1889L25.1489 10ZM34.7936 5.12L33.0436 9.47L32.7036 5.12H32.0036L29.8336 9.47L29.9536 5.12H29.1336L29.1736 10H30.2536L32.1636 6.11L32.4336 10H33.5036L35.6236 5.12H34.7936ZM39.5619 5.12L39.4419 5.75H39.3619C39.1319 5.35 38.7319 5.02 38.0219 5.02C36.7019 5.02 35.8719 6.11 35.5719 7.48C35.2619 8.94 35.6819 10.1 37.0419 10.1C37.6919 10.1 38.2119 9.86 38.6219 9.44H38.6419L38.5319 10H39.2919L40.3319 5.12H39.5619ZM37.2919 9.39C36.3819 9.39 36.1019 8.73 36.3319 7.63C36.5819 6.47 37.2119 5.74 38.1719 5.74C38.9819 5.74 39.3319 6.42 39.1019 7.48C38.8619 8.65 38.1419 9.39 37.2919 9.39ZM40.8716 10H41.6416L42.1416 7.64C42.4116 6.35 43.2116 5.79 43.9216 5.79C44.0616 5.79 44.2316 5.81 44.3916 5.88L44.5016 5.14C44.3616 5.09 44.1816 5.05 43.9916 5.05C43.3716 5.05 42.8616 5.39 42.5316 5.97H42.5016L42.6916 5.12H41.9116L40.8716 10ZM48.8102 3.1L48.2602 5.75H48.1802C47.9502 5.35 47.5502 5.02 46.8402 5.02C45.5202 5.02 44.6902 6.11 44.3902 7.48C44.0802 8.94 44.5002 10.1 45.8602 10.1C46.5102 10.1 47.0302 9.86 47.4402 9.44H47.4602L47.3502 10H48.1102L49.5802 3.1H48.8102ZM46.1102 9.39C45.2002 9.39 44.9202 8.73 45.1502 7.63C45.4002 6.47 46.0302 5.74 46.9902 5.74C47.8002 5.74 48.1502 6.42 47.9202 7.48C47.6802 8.65 46.9602 9.39 46.1102 9.39ZM52.4799 5.06C50.9699 5.06 50.0899 6.25 49.8199 7.5C49.5299 8.87 50.0099 10.06 51.6199 10.06C52.2499 10.06 52.8999 9.89 53.5299 9.35L53.0899 8.86C52.6699 9.21 52.1699 9.37 51.6699 9.37C50.6499 9.37 50.4099 8.67 50.5399 7.83L53.9699 7.86C53.9799 7.83 53.9899 7.76 54.0299 7.62C54.2899 6.38 54.0599 5.06 52.4799 5.06ZM52.3999 5.74C53.2799 5.74 53.5299 6.37 53.3599 7.23H50.6599C50.8799 6.49 51.4199 5.74 52.3999 5.74ZM59.3376 3.1L58.7876 5.75H58.7076C58.4776 5.35 58.0776 5.02 57.3676 5.02C56.0476 5.02 55.2176 6.11 54.9176 7.48C54.6076 8.94 55.0276 10.1 56.3876 10.1C57.0376 10.1 57.5576 9.86 57.9676 9.44H57.9876L57.8776 10H58.6376L60.1076 3.1H59.3376ZM56.6376 9.39C55.7276 9.39 55.4476 8.73 55.6776 7.63C55.9276 6.47 56.5576 5.74 57.5176 5.74C58.3276 5.74 58.6776 6.42 58.4476 7.48C58.2076 8.65 57.4876 9.39 56.6376 9.39Z" fill="#9999BC"/>
<path d="M7.5 7L10 4.5L7.5 2" stroke="#9999BC" stroke-width="1.4" stroke-linecap="round" stroke-linejoin="round"/>
<path d="M1.99988 10V6.5C1.99988 5.96957 2.21059 5.46086 2.58566 5.08579C2.96074 4.71071 3.46944 4.5 3.99988 4.5H9.99988" stroke="#9999BC" stroke-width="1.4" stroke-linecap="round" stroke-linejoin="round"/>
</svg>
