<svg width="16" height="16" viewBox="0 0 16 16" fill="none" xmlns="http://www.w3.org/2000/svg">
<path d="M12.6667 9.33357C12.5817 9.31153 12.4933 9.30647 12.4064 9.31868C12.3195 9.33088 12.2359 9.36013 12.1603 9.40472C12.0848 9.44931 12.0188 9.50838 11.9661 9.57854C11.9134 9.6487 11.8751 9.72857 11.8533 9.81357C11.5984 10.8193 11.0156 11.7113 10.197 12.3488C9.37848 12.9863 8.37082 13.3328 7.33332 13.3336H3.60666L4.03332 12.9136C4.15749 12.7887 4.22719 12.6197 4.22719 12.4436C4.22719 12.2674 4.15749 12.0985 4.03332 11.9736C3.37832 11.3213 2.93179 10.4891 2.75038 9.58272C2.56897 8.67629 2.66084 7.73641 3.01435 6.88227C3.36786 6.02813 3.96708 5.29823 4.73601 4.78513C5.50493 4.27202 6.40892 3.99885 7.33332 4.00024C7.51014 4.00024 7.6797 3.93 7.80473 3.80497C7.92975 3.67995 7.99999 3.51038 7.99999 3.33357C7.99999 3.15676 7.92975 2.98719 7.80473 2.86217C7.6797 2.73714 7.51014 2.6669 7.33332 2.6669C6.20497 2.67061 5.10053 2.99242 4.14678 3.5954C3.19304 4.19837 2.42865 5.05806 1.94137 6.07578C1.45409 7.0935 1.26366 8.228 1.39195 9.34905C1.52025 10.4701 1.96205 11.5322 2.66666 12.4136L1.52666 13.5269C1.43415 13.6207 1.37149 13.7397 1.34657 13.869C1.32166 13.9984 1.3356 14.1322 1.38666 14.2536C1.43667 14.3753 1.5216 14.4795 1.63075 14.5531C1.7399 14.6266 1.86837 14.6662 1.99999 14.6669H7.33332C8.66416 14.6678 9.95751 14.2261 11.0099 13.4115C12.0623 12.5969 12.8139 11.4555 13.1467 10.1669C13.1717 10.0807 13.1791 9.99024 13.1684 9.90106C13.1577 9.81189 13.129 9.7258 13.0842 9.64797C13.0394 9.57014 12.9793 9.50217 12.9075 9.44814C12.8358 9.39412 12.7538 9.35515 12.6667 9.33357ZM14.4733 3.5069L12.4733 1.5069C12.4099 1.44621 12.3352 1.39863 12.2533 1.3669C12.091 1.30022 11.909 1.30022 11.7467 1.3669C11.6648 1.39863 11.5901 1.44621 11.5267 1.5069L9.52666 3.5069C9.40112 3.63244 9.3306 3.8027 9.3306 3.98024C9.3306 4.15777 9.40112 4.32803 9.52666 4.45357C9.65219 4.57911 9.82246 4.64963 9.99999 4.64963C10.1775 4.64963 10.3478 4.57911 10.4733 4.45357L11.3333 3.6069V7.33357C11.3333 7.51038 11.4036 7.67995 11.5286 7.80498C11.6536 7.93 11.8232 8.00024 12 8.00024C12.1768 8.00024 12.3464 7.93 12.4714 7.80498C12.5964 7.67995 12.6667 7.51038 12.6667 7.33357V3.6069L13.5267 4.47357C13.5886 4.53606 13.6624 4.58565 13.7436 4.6195C13.8248 4.65334 13.912 4.67077 14 4.67077C14.088 4.67077 14.1751 4.65334 14.2564 4.6195C14.3376 4.58565 14.4113 4.53606 14.4733 4.47357C14.5358 4.41159 14.5854 4.33786 14.6193 4.25662C14.6531 4.17538 14.6705 4.08824 14.6705 4.00024C14.6705 3.91223 14.6531 3.82509 14.6193 3.74385C14.5854 3.66261 14.5358 3.58888 14.4733 3.5269V3.5069Z" fill="#51545C"/>
</svg>
