<svg width="20" height="20" viewBox="0 0 20 20" fill="none" xmlns="http://www.w3.org/2000/svg">
<path d="M2.50008 3.33325C2.27907 3.33325 2.06711 3.42105 1.91083 3.57733C1.75455 3.73361 1.66675 3.94557 1.66675 4.16659V15.8332C1.66675 16.0543 1.75455 16.2662 1.91083 16.4225C2.06711 16.5788 2.27907 16.6666 2.50008 16.6666C2.7211 16.6666 2.93306 16.5788 3.08934 16.4225C3.24562 16.2662 3.33341 16.0543 3.33341 15.8332V4.16659C3.33341 3.94557 3.24562 3.73361 3.08934 3.57733C2.93306 3.42105 2.7211 3.33325 2.50008 3.33325ZM18.2667 9.68325C18.2271 9.58096 18.1676 9.4875 18.0917 9.40825L14.7584 6.07492C14.6807 5.99722 14.5885 5.93559 14.487 5.89354C14.3854 5.85148 14.2766 5.82984 14.1667 5.82984C13.9448 5.82984 13.732 5.918 13.5751 6.07492C13.4182 6.23184 13.33 6.44467 13.33 6.66658C13.33 6.8885 13.4182 7.10133 13.5751 7.25825L15.4917 9.16658H5.83341C5.6124 9.16658 5.40044 9.25438 5.24416 9.41066C5.08788 9.56694 5.00008 9.7789 5.00008 9.99992C5.00008 10.2209 5.08788 10.4329 5.24416 10.5892C5.40044 10.7455 5.6124 10.8333 5.83341 10.8333H15.4917L13.5751 12.7416C13.497 12.8191 13.435 12.9112 13.3927 13.0128C13.3504 13.1143 13.3286 13.2232 13.3286 13.3333C13.3286 13.4433 13.3504 13.5522 13.3927 13.6537C13.435 13.7553 13.497 13.8474 13.5751 13.9249C13.6526 14.003 13.7447 14.065 13.8463 14.1073C13.9478 14.1496 14.0567 14.1714 14.1667 14.1714C14.2768 14.1714 14.3857 14.1496 14.4872 14.1073C14.5888 14.065 14.6809 14.003 14.7584 13.9249L18.0917 10.5916C18.1676 10.5123 18.2271 10.4189 18.2667 10.3166C18.3501 10.1137 18.3501 9.88613 18.2667 9.68325Z" fill="#6B7491"/>
</svg>
