<svg width="16" height="16" viewBox="0 0 16 16" fill="none" xmlns="http://www.w3.org/2000/svg">
<path d="M12.6667 2.66675H3.33334C2.80291 2.66675 2.2942 2.87746 1.91913 3.25253C1.54406 3.62761 1.33334 4.13631 1.33334 4.66675V11.3334C1.33334 11.8638 1.54406 12.3726 1.91913 12.7476C2.2942 13.1227 2.80291 13.3334 3.33334 13.3334H12.6667C13.1971 13.3334 13.7058 13.1227 14.0809 12.7476C14.456 12.3726 14.6667 11.8638 14.6667 11.3334V4.66675C14.6667 4.13631 14.456 3.62761 14.0809 3.25253C13.7058 2.87746 13.1971 2.66675 12.6667 2.66675ZM3.33334 12.0001C3.15653 12.0001 2.98696 11.9298 2.86194 11.8048C2.73691 11.6798 2.66668 11.5102 2.66668 11.3334V9.72008L4.86668 7.52675C4.9913 7.4046 5.15884 7.33618 5.33334 7.33618C5.50785 7.33618 5.67539 7.4046 5.80001 7.52675L10.2733 12.0001H3.33334ZM13.3333 11.3334C13.3333 11.5102 13.2631 11.6798 13.1381 11.8048C13.0131 11.9298 12.8435 12.0001 12.6667 12.0001H12.1533L9.61334 9.44675L10.2 8.86008C10.3246 8.73793 10.4922 8.66951 10.6667 8.66951C10.8412 8.66951 11.0087 8.73793 11.1333 8.86008L13.3333 11.0534V11.3334ZM13.3333 9.17341L12.08 7.92675C11.7001 7.5617 11.1936 7.35783 10.6667 7.35783C10.1398 7.35783 9.6333 7.5617 9.25334 7.92675L8.66668 8.51341L6.74668 6.59341C6.36672 6.22837 5.86025 6.0245 5.33334 6.0245C4.80644 6.0245 4.29997 6.22837 3.92001 6.59341L2.66668 7.84008V4.66675C2.66668 4.48994 2.73691 4.32037 2.86194 4.19534C2.98696 4.07032 3.15653 4.00008 3.33334 4.00008H12.6667C12.8435 4.00008 13.0131 4.07032 13.1381 4.19534C13.2631 4.32037 13.3333 4.48994 13.3333 4.66675V9.17341Z" fill="#EA8D51"/>
</svg>
