<svg width="18" height="18" viewBox="0 0 18 18" fill="none" xmlns="http://www.w3.org/2000/svg">
<path d="M14 11.5V3.16669C14 2.50365 13.7366 1.86776 13.2678 1.39892C12.7989 0.930079 12.163 0.666687 11.5 0.666687H3.16667C2.50363 0.666687 1.86775 0.930079 1.3989 1.39892C0.930064 1.86776 0.666672 2.50365 0.666672 3.16669V11.5C0.666672 12.1631 0.930064 12.7989 1.3989 13.2678C1.86775 13.7366 2.50363 14 3.16667 14H11.5C12.163 14 12.7989 13.7366 13.2678 13.2678C13.7366 12.7989 14 12.1631 14 11.5ZM2.33334 3.16669C2.33334 2.94567 2.42114 2.73371 2.57742 2.57743C2.7337 2.42115 2.94566 2.33335 3.16667 2.33335H11.5C11.721 2.33335 11.933 2.42115 12.0893 2.57743C12.2455 2.73371 12.3333 2.94567 12.3333 3.16669V6.80002L11.4333 5.89169C11.0333 5.49159 10.4908 5.26677 9.925 5.26669C9.35961 5.26859 8.81771 5.49313 8.41667 5.89169L7.65834 6.65002L6.98334 5.97502C6.52662 5.52563 5.91157 5.27378 5.27084 5.27378C4.63011 5.27378 4.01505 5.52563 3.55834 5.97502L2.33334 7.20835V3.16669ZM2.43334 11.875C2.36908 11.7604 2.33469 11.6314 2.33334 11.5V9.55835L4.73334 7.15835C4.8038 7.08755 4.88756 7.03137 4.9798 6.99303C5.07204 6.9547 5.17095 6.93496 5.27084 6.93496C5.37073 6.93496 5.46963 6.9547 5.56188 6.99303C5.65412 7.03137 5.73787 7.08755 5.80834 7.15835L6.50001 7.83335L2.43334 11.875ZM9.60001 7.07502C9.64113 7.02983 9.69134 6.99384 9.74735 6.96943C9.80337 6.94501 9.86391 6.93272 9.925 6.93335C9.9861 6.93272 10.0466 6.94501 10.1027 6.96943C10.1587 6.99384 10.2089 7.02983 10.25 7.07502L12.3333 9.15002V11.5C12.3333 11.721 12.2455 11.933 12.0893 12.0893C11.933 12.2456 11.721 12.3334 11.5 12.3334H4.33334L9.60001 7.07502ZM16.5 4.00002C16.279 4.00002 16.067 4.08782 15.9107 4.2441C15.7545 4.40038 15.6667 4.61234 15.6667 4.83335V13.1667C15.6667 13.8297 15.4033 14.4656 14.9344 14.9345C14.4656 15.4033 13.8297 15.6667 13.1667 15.6667H4.83334C4.61232 15.6667 4.40036 15.7545 4.24408 15.9108C4.0878 16.067 4.00001 16.279 4.00001 16.5C4.00001 16.721 4.0878 16.933 4.24408 17.0893C4.40036 17.2456 4.61232 17.3334 4.83334 17.3334H13.1667C14.2717 17.3334 15.3315 16.8944 16.113 16.113C16.8944 15.3316 17.3333 14.2718 17.3333 13.1667V4.83335C17.3333 4.61234 17.2455 4.40038 17.0893 4.2441C16.933 4.08782 16.721 4.00002 16.5 4.00002Z" fill="#4CD964"/>
</svg>
