<svg width="16" height="16" viewBox="0 0 16 16" fill="none" xmlns="http://www.w3.org/2000/svg">
<path d="M10.4733 5.52659C10.4114 5.4641 10.3376 5.4145 10.2564 5.38066C10.1751 5.34681 10.088 5.32939 10 5.32939C9.91199 5.32939 9.82486 5.34681 9.74362 5.38066C9.66238 5.4145 9.58864 5.4641 9.52667 5.52659L8 7.05992L6.47334 5.52659C6.3478 5.40105 6.17754 5.33052 6 5.33052C5.82247 5.33052 5.6522 5.40105 5.52667 5.52659C5.40113 5.65212 5.33061 5.82238 5.33061 5.99992C5.33061 6.17745 5.40113 6.34772 5.52667 6.47325L7.06 7.99992L5.52667 9.52659C5.46418 9.58856 5.41459 9.66229 5.38074 9.74353C5.3469 9.82477 5.32947 9.91191 5.32947 9.99992C5.32947 10.0879 5.3469 10.1751 5.38074 10.2563C5.41459 10.3375 5.46418 10.4113 5.52667 10.4733C5.58864 10.5357 5.66238 10.5853 5.74362 10.6192C5.82486 10.653 5.91199 10.6705 6 10.6705C6.08801 10.6705 6.17515 10.653 6.25639 10.6192C6.33763 10.5853 6.41136 10.5357 6.47334 10.4733L8 8.93992L9.52667 10.4733C9.58864 10.5357 9.66238 10.5853 9.74362 10.6192C9.82486 10.653 9.91199 10.6705 10 10.6705C10.088 10.6705 10.1751 10.653 10.2564 10.6192C10.3376 10.5853 10.4114 10.5357 10.4733 10.4733C10.5358 10.4113 10.5854 10.3375 10.6193 10.2563C10.6531 10.1751 10.6705 10.0879 10.6705 9.99992C10.6705 9.91191 10.6531 9.82477 10.6193 9.74353C10.5854 9.66229 10.5358 9.58856 10.4733 9.52659L8.94 7.99992L10.4733 6.47325C10.5358 6.41128 10.5854 6.33754 10.6193 6.2563C10.6531 6.17506 10.6705 6.08793 10.6705 5.99992C10.6705 5.91191 10.6531 5.82477 10.6193 5.74353C10.5854 5.66229 10.5358 5.58856 10.4733 5.52659ZM12.6667 1.33325H3.33334C2.8029 1.33325 2.2942 1.54397 1.91912 1.91904C1.54405 2.29411 1.33334 2.80282 1.33334 3.33325V12.6666C1.33334 13.197 1.54405 13.7057 1.91912 14.0808C2.2942 14.4559 2.8029 14.6666 3.33334 14.6666H12.6667C13.1971 14.6666 13.7058 14.4559 14.0809 14.0808C14.456 13.7057 14.6667 13.197 14.6667 12.6666V3.33325C14.6667 2.80282 14.456 2.29411 14.0809 1.91904C13.7058 1.54397 13.1971 1.33325 12.6667 1.33325ZM13.3333 12.6666C13.3333 12.8434 13.2631 13.013 13.1381 13.138C13.0131 13.263 12.8435 13.3333 12.6667 13.3333H3.33334C3.15652 13.3333 2.98696 13.263 2.86193 13.138C2.73691 13.013 2.66667 12.8434 2.66667 12.6666V3.33325C2.66667 3.15644 2.73691 2.98687 2.86193 2.86185C2.98696 2.73682 3.15652 2.66659 3.33334 2.66659H12.6667C12.8435 2.66659 13.0131 2.73682 13.1381 2.86185C13.2631 2.98687 13.3333 3.15644 13.3333 3.33325V12.6666Z" fill="#D53120"/>
</svg>
