<svg width="20" height="20" viewBox="0 0 20 20" fill="none" xmlns="http://www.w3.org/2000/svg">
<path d="M9.99992 12.5002C10.884 12.5002 11.7318 12.149 12.3569 11.5239C12.9821 10.8987 13.3333 10.0509 13.3333 9.16683V4.16683C13.3333 3.28277 12.9821 2.43493 12.3569 1.80981C11.7318 1.18469 10.884 0.833496 9.99992 0.833496C9.11586 0.833496 8.26802 1.18469 7.6429 1.80981C7.01777 2.43493 6.66659 3.28277 6.66659 4.16683V9.16683C6.66659 10.0509 7.01777 10.8987 7.6429 11.5239C8.26802 12.149 9.11586 12.5002 9.99992 12.5002ZM8.33325 4.16683C8.33325 3.7248 8.50885 3.30088 8.82141 2.98832C9.13397 2.67576 9.55789 2.50016 9.99992 2.50016C10.4419 2.50016 10.8659 2.67576 11.1784 2.98832C11.491 3.30088 11.6666 3.7248 11.6666 4.16683V9.16683C11.6666 9.60886 11.491 10.0328 11.1784 10.3453C10.8659 10.6579 10.4419 10.8335 9.99992 10.8335C9.55789 10.8335 9.13397 10.6579 8.82141 10.3453C8.50885 10.0328 8.33325 9.60886 8.33325 9.16683V4.16683ZM16.6666 9.16683C16.6666 8.94582 16.5788 8.73385 16.4225 8.57757C16.2662 8.42129 16.0543 8.3335 15.8333 8.3335C15.6122 8.3335 15.4003 8.42129 15.244 8.57757C15.0877 8.73385 14.9999 8.94582 14.9999 9.16683C14.9999 10.4929 14.4731 11.7647 13.5355 12.7024C12.5978 13.64 11.326 14.1668 9.99992 14.1668C8.67384 14.1668 7.40207 13.64 6.46438 12.7024C5.5267 11.7647 4.99992 10.4929 4.99992 9.16683C4.99992 8.94582 4.91212 8.73385 4.75584 8.57757C4.59956 8.42129 4.3876 8.3335 4.16659 8.3335C3.94557 8.3335 3.73361 8.42129 3.57733 8.57757C3.42105 8.73385 3.33325 8.94582 3.33325 9.16683C3.33472 10.7896 3.92802 12.3561 5.00192 13.5726C6.07581 14.7892 7.55657 15.5723 9.16658 15.7752V17.5002H7.49992C7.2789 17.5002 7.06694 17.588 6.91066 17.7442C6.75438 17.9005 6.66659 18.1125 6.66659 18.3335C6.66659 18.5545 6.75438 18.7665 6.91066 18.9228C7.06694 19.079 7.2789 19.1668 7.49992 19.1668H12.4999C12.7209 19.1668 12.9329 19.079 13.0892 18.9228C13.2455 18.7665 13.3333 18.5545 13.3333 18.3335C13.3333 18.1125 13.2455 17.9005 13.0892 17.7442C12.9329 17.588 12.7209 17.5002 12.4999 17.5002H10.8333V15.7752C12.4433 15.5723 13.924 14.7892 14.9979 13.5726C16.0718 12.3561 16.6651 10.7896 16.6666 9.16683Z" fill="#15AE73"/>
</svg>
