<svg width="20" height="20" viewBox="0 0 20 20" fill="none" xmlns="http://www.w3.org/2000/svg">
<path d="M10 12.4999C10.8841 12.4999 11.7319 12.1487 12.357 11.5236C12.9821 10.8985 13.3333 10.0506 13.3333 9.16658V4.16658C13.3333 3.28253 12.9821 2.43468 12.357 1.80956C11.7319 1.18444 10.8841 0.833252 10 0.833252C9.11594 0.833252 8.2681 1.18444 7.64298 1.80956C7.01786 2.43468 6.66667 3.28253 6.66667 4.16658V9.16658C6.66667 10.0506 7.01786 10.8985 7.64298 11.5236C8.2681 12.1487 9.11594 12.4999 10 12.4999ZM8.33333 4.16658C8.33333 3.72456 8.50893 3.30063 8.82149 2.98807C9.13405 2.67551 9.55797 2.49992 10 2.49992C10.442 2.49992 10.8659 2.67551 11.1785 2.98807C11.4911 3.30063 11.6667 3.72456 11.6667 4.16658V9.16658C11.6667 9.60861 11.4911 10.0325 11.1785 10.3451C10.8659 10.6577 10.442 10.8333 10 10.8333C9.55797 10.8333 9.13405 10.6577 8.82149 10.3451C8.50893 10.0325 8.33333 9.60861 8.33333 9.16658V4.16658ZM16.6667 9.16658C16.6667 8.94557 16.5789 8.73361 16.4226 8.57733C16.2663 8.42105 16.0543 8.33325 15.8333 8.33325C15.6123 8.33325 15.4004 8.42105 15.2441 8.57733C15.0878 8.73361 15 8.94557 15 9.16658C15 10.4927 14.4732 11.7644 13.5355 12.7021C12.5979 13.6398 11.3261 14.1666 10 14.1666C8.67392 14.1666 7.40215 13.6398 6.46447 12.7021C5.52678 11.7644 5 10.4927 5 9.16658C5 8.94557 4.9122 8.73361 4.75592 8.57733C4.59964 8.42105 4.38768 8.33325 4.16667 8.33325C3.94565 8.33325 3.73369 8.42105 3.57741 8.57733C3.42113 8.73361 3.33333 8.94557 3.33333 9.16658C3.33481 10.7893 3.9281 12.3558 5.002 13.5724C6.07589 14.789 7.55665 15.5721 9.16667 15.7749V17.4999H7.5C7.27899 17.4999 7.06702 17.5877 6.91074 17.744C6.75446 17.9003 6.66667 18.1122 6.66667 18.3332C6.66667 18.5543 6.75446 18.7662 6.91074 18.9225C7.06702 19.0788 7.27899 19.1666 7.5 19.1666H12.5C12.721 19.1666 12.933 19.0788 13.0893 18.9225C13.2455 18.7662 13.3333 18.5543 13.3333 18.3332C13.3333 18.1122 13.2455 17.9003 13.0893 17.744C12.933 17.5877 12.721 17.4999 12.5 17.4999H10.8333V15.7749C12.4433 15.5721 13.9241 14.789 14.998 13.5724C16.0719 12.3558 16.6652 10.7893 16.6667 9.16658Z" fill="#535F89"/>
</svg>
