<svg width="20" height="16" viewBox="0 0 20 16" fill="none" xmlns="http://www.w3.org/2000/svg">
<path d="M10.25 8.18317C10.6947 7.79828 11.0513 7.32224 11.2957 6.78736C11.5402 6.25247 11.6667 5.67126 11.6667 5.08317C11.6667 3.9781 11.2277 2.91829 10.4463 2.13689C9.66488 1.35549 8.60507 0.916504 7.5 0.916504C6.39493 0.916504 5.33513 1.35549 4.55372 2.13689C3.77232 2.91829 3.33334 3.9781 3.33334 5.08317C3.33333 5.67126 3.45984 6.25247 3.70427 6.78736C3.94871 7.32224 4.30535 7.79828 4.75 8.18317C3.58345 8.71141 2.59372 9.56445 1.89915 10.6403C1.20458 11.7161 0.834562 12.9693 0.833336 14.2498C0.833336 14.4709 0.921133 14.6828 1.07741 14.8391C1.23369 14.9954 1.44566 15.0832 1.66667 15.0832C1.88768 15.0832 2.09964 14.9954 2.25592 14.8391C2.41221 14.6828 2.5 14.4709 2.5 14.2498C2.5 12.9238 3.02679 11.652 3.96447 10.7143C4.90215 9.77662 6.17392 9.24984 7.5 9.24984C8.82608 9.24984 10.0979 9.77662 11.0355 10.7143C11.9732 11.652 12.5 12.9238 12.5 14.2498C12.5 14.4709 12.5878 14.6828 12.7441 14.8391C12.9004 14.9954 13.1123 15.0832 13.3333 15.0832C13.5543 15.0832 13.7663 14.9954 13.9226 14.8391C14.0789 14.6828 14.1667 14.4709 14.1667 14.2498C14.1654 12.9693 13.7954 11.7161 13.1009 10.6403C12.4063 9.56445 11.4166 8.71141 10.25 8.18317ZM7.5 7.58317C7.00555 7.58317 6.5222 7.43655 6.11108 7.16185C5.69995 6.88714 5.37952 6.4967 5.1903 6.03988C5.00108 5.58306 4.95158 5.0804 5.04804 4.59545C5.1445 4.11049 5.3826 3.66504 5.73224 3.3154C6.08187 2.96577 6.52732 2.72767 7.01228 2.63121C7.49723 2.53474 7.9999 2.58425 8.45671 2.77347C8.91353 2.96269 9.30397 3.28312 9.57868 3.69425C9.85338 4.10537 10 4.58872 10 5.08317C10 5.74621 9.73661 6.3821 9.26777 6.85094C8.79893 7.31978 8.16304 7.58317 7.5 7.58317ZM15.6167 7.84984C16.15 7.24928 16.4983 6.50738 16.6198 5.71345C16.7413 4.91952 16.6308 4.1074 16.3015 3.37484C15.9722 2.64228 15.4382 2.0205 14.7637 1.58436C14.0893 1.14821 13.3032 0.916289 12.5 0.916504C12.279 0.916504 12.067 1.0043 11.9107 1.16058C11.7545 1.31686 11.6667 1.52882 11.6667 1.74984C11.6667 1.97085 11.7545 2.18281 11.9107 2.33909C12.067 2.49537 12.279 2.58317 12.5 2.58317C13.163 2.58317 13.7989 2.84656 14.2678 3.3154C14.7366 3.78425 15 4.42013 15 5.08317C14.9988 5.52087 14.8827 5.95059 14.6634 6.32936C14.444 6.70812 14.1291 7.02266 13.75 7.2415C13.6265 7.31277 13.5233 7.41456 13.4503 7.53712C13.3774 7.65968 13.3371 7.79892 13.3333 7.9415C13.3298 8.08297 13.3624 8.223 13.4281 8.34839C13.4937 8.47377 13.5901 8.58038 13.7083 8.65817L14.0333 8.87484L14.1417 8.93317C15.1462 9.4096 15.9936 10.1632 16.5842 11.1051C17.1747 12.047 17.4838 13.1381 17.475 14.2498C17.475 14.4709 17.5628 14.6828 17.7191 14.8391C17.8754 14.9954 18.0873 15.0832 18.3083 15.0832C18.5293 15.0832 18.7413 14.9954 18.8976 14.8391C19.0539 14.6828 19.1417 14.4709 19.1417 14.2498C19.1485 12.971 18.8282 11.7117 18.2112 10.5916C17.5943 9.4714 16.7011 8.5276 15.6167 7.84984Z" fill="#566BA0"/>
</svg>
