<svg width="18" height="18" viewBox="0 0 18 18" fill="none" xmlns="http://www.w3.org/2000/svg">
<path d="M12.0917 9.59169C12.9087 8.94891 13.505 8.06746 13.7977 7.06997C14.0904 6.07249 14.0649 5.00858 13.7248 4.02625C13.3847 3.04391 12.7469 2.19202 11.9001 1.58907C11.0532 0.986122 10.0395 0.662109 9 0.662109C7.96045 0.662109 6.94676 0.986122 6.09994 1.58907C5.25312 2.19202 4.61528 3.04391 4.27517 4.02625C3.93506 5.00858 3.90959 6.07249 4.2023 7.06997C4.49501 8.06746 5.09134 8.94891 5.90833 9.59169C4.5084 10.1526 3.2869 11.0828 2.37407 12.2833C1.46125 13.4838 0.8913 14.9094 0.724997 16.4084C0.712959 16.5178 0.722594 16.6285 0.753352 16.7342C0.784109 16.84 0.835387 16.9386 0.904257 17.0245C1.04335 17.1979 1.24565 17.309 1.46666 17.3334C1.68768 17.3577 1.9093 17.2932 2.08277 17.1541C2.25624 17.015 2.36735 16.8127 2.39166 16.5917C2.57465 14.9627 3.3514 13.4582 4.57351 12.3657C5.79562 11.2732 7.37741 10.6692 9.01666 10.6692C10.6559 10.6692 12.2377 11.2732 13.4598 12.3657C14.6819 13.4582 15.4587 14.9627 15.6417 16.5917C15.6643 16.7965 15.762 16.9856 15.9159 17.1225C16.0698 17.2595 16.269 17.3346 16.475 17.3334H16.5667C16.7851 17.3082 16.9848 17.1978 17.1221 17.0261C17.2595 16.8544 17.3234 16.6353 17.3 16.4167C17.1329 14.9135 16.5599 13.4842 15.6424 12.2819C14.7249 11.0795 13.4974 10.1496 12.0917 9.59169ZM9 9.00002C8.34073 9.00002 7.69626 8.80453 7.1481 8.43826C6.59993 8.07198 6.17269 7.55139 5.9204 6.9423C5.66811 6.33321 5.6021 5.66299 5.73071 5.01639C5.85933 4.36979 6.1768 3.77584 6.64297 3.30967C7.10915 2.84349 7.70309 2.52602 8.3497 2.39741C8.9963 2.26879 9.66652 2.3348 10.2756 2.58709C10.8847 2.83938 11.4053 3.26662 11.7716 3.81479C12.1378 4.36295 12.3333 5.00742 12.3333 5.66669C12.3333 6.55075 11.9821 7.39859 11.357 8.02371C10.7319 8.64883 9.88405 9.00002 9 9.00002Z" fill="#566BA0"/>
</svg>
