<svg width="16" height="16" viewBox="0 0 16 16" fill="none" xmlns="http://www.w3.org/2000/svg">
<path fill-rule="evenodd" clip-rule="evenodd" d="M1.53285 7.52876C1.79392 7.26841 2.21721 7.26841 2.47828 7.52876L5.15238 10.1954C5.41345 10.4558 5.41345 10.8779 5.15238 11.1382C4.8913 11.3986 4.46802 11.3986 4.20694 11.1382L1.53285 8.47157C1.27178 8.21122 1.27178 7.78911 1.53285 7.52876Z" fill="#005FFF"/>
<path fill-rule="evenodd" clip-rule="evenodd" d="M6.21251 8.19526C6.47359 7.93491 6.89687 7.93491 7.15795 8.19526L9.16352 10.1953C9.42459 10.4556 9.42459 10.8777 9.16352 11.1381C8.90244 11.3984 8.47916 11.3984 8.21808 11.1381L6.21251 9.13807C5.95144 8.87772 5.95144 8.45561 6.21251 8.19526Z" fill="#005FFF"/>
<path fill-rule="evenodd" clip-rule="evenodd" d="M10.5006 4.86177C10.7616 5.12212 10.7616 5.54423 10.5006 5.80457L5.15238 11.1379C4.89131 11.3983 4.46802 11.3983 4.20694 11.1379C3.94587 10.8776 3.94587 10.4554 4.20694 10.1951L9.55513 4.86177C9.81621 4.60142 10.2395 4.60142 10.5006 4.86177Z" fill="#005FFF"/>
<path fill-rule="evenodd" clip-rule="evenodd" d="M14.5117 4.86177C14.7728 5.12212 14.7728 5.54423 14.5117 5.80457L9.16352 11.1379C8.90244 11.3983 8.47916 11.3983 8.21808 11.1379C7.95701 10.8776 7.95701 10.4554 8.21808 10.1951L13.5663 4.86177C13.8273 4.60142 14.2506 4.60142 14.5117 4.86177Z" fill="#005FFF"/>
</svg>
