<svg width="16" height="17" viewBox="0 0 16 17" fill="none" xmlns="http://www.w3.org/2000/svg">
<path fill-rule="evenodd" clip-rule="evenodd" d="M1.53296 8.02851C1.79404 7.76816 2.21732 7.76816 2.4784 8.02851L5.15249 10.6952C5.41357 10.9555 5.41357 11.3776 5.15249 11.638C4.89142 11.8983 4.46813 11.8983 4.20706 11.638L1.53296 8.97132C1.27189 8.71097 1.27189 8.28886 1.53296 8.02851Z" fill="#005FFF"/>
<path fill-rule="evenodd" clip-rule="evenodd" d="M6.21241 8.69526C6.47348 8.43491 6.89677 8.43491 7.15784 8.69526L9.16341 10.6953C9.42448 10.9556 9.42448 11.3777 9.16341 11.6381C8.90234 11.8984 8.47905 11.8984 8.21798 11.6381L6.21241 9.63807C5.95133 9.37772 5.95133 8.95561 6.21241 8.69526Z" fill="#005FFF"/>
<path fill-rule="evenodd" clip-rule="evenodd" d="M10.5007 5.36201C10.7617 5.62236 10.7617 6.04447 10.5007 6.30482L5.15247 11.6382C4.8914 11.8985 4.46811 11.8985 4.20704 11.6382C3.94596 11.3778 3.94596 10.9557 4.20704 10.6953L9.55522 5.36201C9.8163 5.10166 10.2396 5.10166 10.5007 5.36201Z" fill="#005FFF"/>
<path fill-rule="evenodd" clip-rule="evenodd" d="M14.5116 5.36201C14.7727 5.62236 14.7727 6.04447 14.5116 6.30482L9.16346 11.6382C8.90238 11.8985 8.4791 11.8985 8.21802 11.6382C7.95695 11.3778 7.95695 10.9557 8.21802 10.6953L13.5662 5.36201C13.8273 5.10166 14.2506 5.10166 14.5116 5.36201Z" fill="#005FFF"/>
</svg>
