<svg width="14" height="14" viewBox="0 0 14 14" fill="none" xmlns="http://www.w3.org/2000/svg">
<path fill-rule="evenodd" clip-rule="evenodd" d="M1.34125 6.58736C1.56969 6.35955 1.94007 6.35955 2.16851 6.58736L4.50834 8.92069C4.73678 9.1485 4.73678 9.51784 4.50834 9.74565C4.2799 9.97345 3.90952 9.97345 3.68108 9.74565L1.34125 7.41232C1.11281 7.18451 1.11281 6.81516 1.34125 6.58736Z" fill="#15AE73"/>
<path fill-rule="evenodd" clip-rule="evenodd" d="M5.435 7.17085C5.66344 6.94305 6.03382 6.94305 6.26226 7.17085L8.01713 8.92085C8.24557 9.14866 8.24557 9.51801 8.01713 9.74581C7.78869 9.97362 7.41832 9.97362 7.18987 9.74581L5.435 7.99581C5.20656 7.76801 5.20656 7.39866 5.435 7.17085Z" fill="#15AE73"/>
<path fill-rule="evenodd" clip-rule="evenodd" d="M9.18801 4.25435C9.41645 4.48216 9.41645 4.8515 9.18801 5.07931L4.50835 9.74597C4.27991 9.97378 3.90954 9.97378 3.6811 9.74597C3.45266 9.51817 3.45266 9.14882 3.6811 8.92102L8.36076 4.25435C8.5892 4.02654 8.95957 4.02654 9.18801 4.25435Z" fill="#15AE73"/>
<path fill-rule="evenodd" clip-rule="evenodd" d="M12.6978 4.25435C12.9262 4.48216 12.9262 4.8515 12.6978 5.07931L8.01812 9.74597C7.78968 9.97378 7.4193 9.97378 7.19086 9.74597C6.96242 9.51817 6.96242 9.14882 7.19086 8.92102L11.8705 4.25435C12.099 4.02654 12.4693 4.02654 12.6978 4.25435Z" fill="#15AE73"/>
</svg>
