<svg width="16" height="16" viewBox="0 0 16 16" fill="none" xmlns="http://www.w3.org/2000/svg">
<path d="M13.74 12.7934C14.1578 12.2333 14.4445 11.5866 14.579 10.901C14.7134 10.2153 14.6922 9.50824 14.5169 8.83189C14.3416 8.15553 14.0166 7.52718 13.566 6.9932C13.1154 6.45922 12.5506 6.03324 11.9133 5.7467C11.7745 4.9481 11.4555 4.19165 10.9805 3.53482C10.5056 2.87798 9.88713 2.33805 9.17222 1.95606C8.4573 1.57406 7.66472 1.36004 6.8547 1.33026C6.04467 1.30048 5.23852 1.45573 4.49748 1.78421C3.75645 2.11269 3.10004 2.60575 2.57812 3.22594C2.05621 3.84612 1.68252 4.57711 1.48546 5.36337C1.28839 6.14962 1.27314 6.97045 1.44085 7.76348C1.60856 8.55651 1.95482 9.30088 2.45333 9.94004L1.52666 10.86C1.43416 10.9538 1.37149 11.0728 1.34658 11.2022C1.32166 11.3315 1.33561 11.4653 1.38666 11.5867C1.43667 11.7084 1.52161 11.8127 1.63075 11.8862C1.7399 11.9598 1.86838 11.9994 1.99999 12H5.79333C6.17109 12.7964 6.76668 13.4696 7.51116 13.9415C8.25563 14.4134 9.11854 14.6649 9.99999 14.6667H14C14.1316 14.666 14.2601 14.6264 14.3692 14.5529C14.4784 14.4793 14.5633 14.3751 14.6133 14.2534C14.6644 14.132 14.6783 13.9982 14.6534 13.8688C14.6285 13.7395 14.5658 13.6205 14.4733 13.5267L13.74 12.7934ZM5.33333 10C5.33424 10.2233 5.35207 10.4461 5.38666 10.6667H3.60666L3.83999 10.44C3.90248 10.3781 3.95208 10.3043 3.98592 10.2231C4.01977 10.1418 4.03719 10.0547 4.03719 9.9667C4.03719 9.87869 4.01977 9.79156 3.98592 9.71032C3.95208 9.62908 3.90248 9.55534 3.83999 9.49337C3.46637 9.12384 3.17016 8.68353 2.9687 8.19818C2.76723 7.71284 2.66455 7.1922 2.66666 6.6667C2.66666 5.60584 3.08809 4.58842 3.83823 3.83827C4.58838 3.08813 5.60579 2.6667 6.66666 2.6667C7.49445 2.66173 8.30299 2.91629 8.97861 3.39461C9.65424 3.87293 10.163 4.55095 10.4333 5.33337C10.2867 5.33337 10.1467 5.33337 9.99999 5.33337C8.76232 5.33337 7.57533 5.82503 6.70016 6.7002C5.82499 7.57537 5.33333 8.76236 5.33333 10ZM12.36 13.3334L12.3933 13.3667H9.99999C9.22889 13.3653 8.48211 13.0966 7.88687 12.6064C7.29164 12.1162 6.88478 11.4348 6.73559 10.6783C6.58641 9.92172 6.70413 9.13686 7.06871 8.45738C7.43329 7.7779 8.02217 7.24584 8.73503 6.95184C9.44789 6.65783 10.2406 6.62007 10.9782 6.84499C11.7158 7.06991 12.3526 7.54359 12.7801 8.18534C13.2076 8.82709 13.3994 9.59721 13.3228 10.3645C13.2462 11.1318 12.9059 11.8488 12.36 12.3934C12.2344 12.5165 12.1625 12.6842 12.16 12.86C12.1604 12.9482 12.1782 13.0355 12.2126 13.1167C12.2469 13.198 12.297 13.2716 12.36 13.3334Z" fill="#51545C"/>
</svg>
