<svg width="20" height="20" viewBox="0 0 20 20" fill="none" xmlns="http://www.w3.org/2000/svg">
<path d="M14.1666 7.91674H6.17491L7.25825 6.84174C7.41517 6.68482 7.50332 6.47199 7.50332 6.25007C7.50332 6.02816 7.41517 5.81533 7.25825 5.65841C7.10133 5.50149 6.8885 5.41333 6.66658 5.41333C6.44466 5.41333 6.23183 5.50149 6.07491 5.65841L3.57491 8.15841C3.49905 8.23766 3.43958 8.33111 3.39991 8.43341C3.31657 8.63629 3.31657 8.86385 3.39991 9.06674C3.43958 9.16903 3.49905 9.26249 3.57491 9.34174L6.07491 11.8417C6.15238 11.9198 6.24455 11.9818 6.3461 12.0241C6.44765 12.0665 6.55657 12.0882 6.66658 12.0882C6.77659 12.0882 6.88551 12.0665 6.98706 12.0241C7.08861 11.9818 7.18078 11.9198 7.25825 11.8417C7.33635 11.7643 7.39835 11.6721 7.44066 11.5706C7.48296 11.469 7.50475 11.3601 7.50475 11.2501C7.50475 11.1401 7.48296 11.0311 7.44066 10.9296C7.39835 10.828 7.33635 10.7359 7.25825 10.6584L6.17491 9.58341H14.1666C14.3876 9.58341 14.5996 9.6712 14.7558 9.82748C14.9121 9.98376 14.9999 10.1957 14.9999 10.4167V13.7501C14.9999 13.9711 15.0877 14.183 15.244 14.3393C15.4003 14.4956 15.6122 14.5834 15.8332 14.5834C16.0543 14.5834 16.2662 14.4956 16.4225 14.3393C16.5788 14.183 16.6666 13.9711 16.6666 13.7501V10.4167C16.6666 9.7537 16.4032 9.11781 15.9343 8.64897C15.4655 8.18013 14.8296 7.91674 14.1666 7.91674Z" fill="#6B7491"/>
</svg>
