<svg width="16" height="16" viewBox="0 0 16 16" fill="none" xmlns="http://www.w3.org/2000/svg">
<path d="M9.81333 5.85992L6.95333 8.72659L5.85333 7.62659C5.79357 7.5568 5.72002 7.50012 5.63731 7.4601C5.5546 7.42009 5.46451 7.3976 5.3727 7.39405C5.28089 7.39051 5.18933 7.40598 5.10378 7.43949C5.01823 7.47301 4.94053 7.52385 4.87556 7.58882C4.81059 7.65379 4.75976 7.73149 4.72624 7.81704C4.69272 7.90259 4.67725 7.99414 4.6808 8.08595C4.68435 8.17777 4.70683 8.26786 4.74685 8.35057C4.78686 8.43328 4.84354 8.50682 4.91333 8.56659L6.48 10.1399C6.54229 10.2017 6.61617 10.2506 6.69739 10.2838C6.77862 10.3169 6.86559 10.3338 6.95333 10.3333C7.12822 10.3325 7.29582 10.2631 7.42 10.1399L10.7533 6.80659C10.8158 6.74461 10.8654 6.67088 10.8993 6.58964C10.9331 6.5084 10.9505 6.42126 10.9505 6.33325C10.9505 6.24524 10.9331 6.15811 10.8993 6.07687C10.8654 5.99563 10.8158 5.92189 10.7533 5.85992C10.6284 5.73575 10.4595 5.66606 10.2833 5.66606C10.1072 5.66606 9.93824 5.73575 9.81333 5.85992ZM8 1.33325C6.68146 1.33325 5.39252 1.72425 4.2962 2.45679C3.19987 3.18933 2.34539 4.23052 1.8408 5.4487C1.33622 6.66687 1.20419 8.00731 1.46143 9.30052C1.71866 10.5937 2.3536 11.7816 3.28595 12.714C4.2183 13.6463 5.40619 14.2813 6.6994 14.5385C7.9926 14.7957 9.33305 14.6637 10.5512 14.1591C11.7694 13.6545 12.8106 12.8 13.5431 11.7037C14.2757 10.6074 14.6667 9.31846 14.6667 7.99992C14.6667 7.12444 14.4942 6.25753 14.1592 5.4487C13.8242 4.63986 13.3331 3.90493 12.714 3.28587C12.095 2.66682 11.3601 2.17575 10.5512 1.84072C9.74238 1.50569 8.87548 1.33325 8 1.33325ZM8 13.3333C6.94516 13.3333 5.91402 13.0205 5.03696 12.4344C4.15989 11.8484 3.47631 11.0154 3.07264 10.0409C2.66897 9.06636 2.56336 7.994 2.76914 6.95944C2.97493 5.92487 3.48288 4.97456 4.22876 4.22868C4.97464 3.4828 5.92495 2.97485 6.95952 2.76906C7.99408 2.56328 9.06644 2.66889 10.041 3.07256C11.0155 3.47623 11.8485 4.15982 12.4345 5.03688C13.0205 5.91394 13.3333 6.94509 13.3333 7.99992C13.3333 9.41441 12.7714 10.771 11.7712 11.7712C10.771 12.7713 9.41449 13.3333 8 13.3333Z" fill="#51545C"/>
</svg>
