<svg width="20" height="20" viewBox="0 0 20 20" fill="none" xmlns="http://www.w3.org/2000/svg">
<path d="M16.95 7.76661L5.2833 1.93328C4.82287 1.70412 4.30298 1.62254 3.79449 1.69965C3.28601 1.77677 2.81368 2.00884 2.4419 2.36421C2.07013 2.71958 1.81701 3.18096 1.71704 3.68545C1.61707 4.18994 1.67513 4.71299 1.8833 5.18328L3.8833 9.65828C3.92868 9.76647 3.95205 9.88262 3.95205 9.99995C3.95205 10.1173 3.92868 10.2334 3.8833 10.3416L1.8833 14.8166C1.71388 15.1972 1.64226 15.6141 1.67494 16.0294C1.70763 16.4447 1.84358 16.8453 2.07045 17.1947C2.29731 17.5441 2.6079 17.8313 2.97398 18.0301C3.34006 18.229 3.75003 18.3332 4.16663 18.3333C4.55682 18.3294 4.9412 18.2383 5.29163 18.0666L16.9583 12.2333C17.3721 12.0251 17.72 11.706 17.963 11.3117C18.2061 10.9173 18.3348 10.4632 18.3348 9.99995C18.3348 9.5367 18.2061 9.08257 17.963 8.68821C17.72 8.29386 17.3721 7.97479 16.9583 7.76661H16.95ZM16.2083 10.7416L4.54163 16.5749C4.38843 16.6485 4.2164 16.6735 4.04862 16.6465C3.88083 16.6195 3.7253 16.5419 3.60289 16.424C3.48048 16.3061 3.39703 16.1536 3.36374 15.987C3.33045 15.8203 3.3489 15.6475 3.41663 15.4916L5.4083 11.0166C5.43408 10.9569 5.45634 10.8956 5.47496 10.8333H11.2166C11.4376 10.8333 11.6496 10.7455 11.8059 10.5892C11.9622 10.4329 12.05 10.221 12.05 9.99995C12.05 9.77893 11.9622 9.56697 11.8059 9.41069C11.6496 9.25441 11.4376 9.16661 11.2166 9.16661H5.47496C5.45634 9.10425 5.43408 9.04304 5.4083 8.98328L3.41663 4.50828C3.3489 4.35241 3.33045 4.17957 3.36374 4.01292C3.39703 3.84627 3.48048 3.69378 3.60289 3.5759C3.7253 3.45802 3.88083 3.38039 4.04862 3.3534C4.2164 3.32642 4.38843 3.35139 4.54163 3.42494L16.2083 9.25828C16.3448 9.32821 16.4594 9.43446 16.5393 9.56532C16.6193 9.69618 16.6617 9.84657 16.6617 9.99995C16.6617 10.1533 16.6193 10.3037 16.5393 10.4346C16.4594 10.5654 16.3448 10.6717 16.2083 10.7416Z" fill="white"/>
</svg>
