<svg width="16" height="16" viewBox="0 0 16 16" fill="none" xmlns="http://www.w3.org/2000/svg">
<path d="M15.7501 0.250995C15.6333 0.134162 15.4851 0.0535967 15.3236 0.0189988C15.162 -0.0155991 14.9938 -0.00275461 14.8394 0.0559859L0.552315 5.46375H0.549458C0.384726 5.52711 0.243569 5.63978 0.145265 5.78637C0.0469607 5.93296 -0.00369711 6.10632 0.000210162 6.28278C0.00411744 6.45924 0.0623993 6.63019 0.167096 6.77228C0.271792 6.91437 0.417798 7.02068 0.585173 7.07669L0.599816 7.08133L5.50349 9.17536C5.59913 9.2044 5.70072 9.20784 5.79811 9.18534C5.8955 9.16284 5.98528 9.11519 6.0585 9.04714L13.9287 1.71357C13.9521 1.69012 13.98 1.67151 14.0106 1.65882C14.0412 1.64613 14.0741 1.6396 14.1072 1.6396C14.1404 1.6396 14.1732 1.64613 14.2039 1.65882C14.2345 1.67151 14.2624 1.69012 14.2858 1.71357C14.3093 1.73702 14.3279 1.76486 14.3406 1.7955C14.3532 1.82614 14.3598 1.85898 14.3598 1.89215C14.3598 1.92531 14.3532 1.95815 14.3406 1.98879C14.3279 2.01944 14.3093 2.04728 14.2858 2.07073L6.95209 9.93754C6.88404 10.0108 6.83639 10.1006 6.8139 10.1979C6.7914 10.2953 6.79484 10.3969 6.82387 10.4926L8.91856 15.3992C8.9207 15.4064 8.92284 15.4128 8.92534 15.4196C9.03963 15.7507 9.32892 15.9843 9.67857 16H9.71429C9.8908 16.001 10.0635 15.9489 10.21 15.8504C10.3565 15.7519 10.47 15.6116 10.5357 15.4478L15.9426 1.16425C16.0022 1.0097 16.0157 0.841202 15.9816 0.679127C15.9474 0.517052 15.867 0.368347 15.7501 0.250995Z" fill="white"/>
</svg>
