<svg width="16" height="16" viewBox="0 0 16 16" fill="none" xmlns="http://www.w3.org/2000/svg">
<path d="M4.66669 13.3335C4.66669 12.2289 6.15907 11.3335 8.00002 11.3335C9.84097 11.3335 11.3334 12.2289 11.3334 13.3335" stroke="#15AE73" stroke-width="1.4" stroke-linecap="round" stroke-linejoin="round"/>
<path d="M12 9.49951C13.1773 9.80813 14 10.513 14 11.3331" stroke="#15AE73" stroke-width="1.4" stroke-linecap="round" stroke-linejoin="round"/>
<path d="M4 9.49951C2.82273 9.80813 2 10.513 2 11.3331" stroke="#15AE73" stroke-width="1.4" stroke-linecap="round" stroke-linejoin="round"/>
<path d="M8 9.3335C9.10457 9.3335 10 8.43807 10 7.3335C10 6.22893 9.10457 5.3335 8 5.3335C6.89543 5.3335 6 6.22893 6 7.3335C6 8.43807 6.89543 9.3335 8 9.3335Z" stroke="#15AE73" stroke-width="1.4" stroke-linecap="round" stroke-linejoin="round"/>
<path d="M12 6.82423C12.4091 6.45802 12.6666 5.92583 12.6666 5.3335C12.6666 4.22893 11.7712 3.3335 10.6666 3.3335C10.1544 3.3335 9.68715 3.52607 9.33331 3.84276" stroke="#15AE73" stroke-width="1.4" stroke-linecap="round" stroke-linejoin="round"/>
<path d="M3.99998 6.82423C3.59081 6.45802 3.33331 5.92583 3.33331 5.3335C3.33331 4.22893 4.22874 3.3335 5.33331 3.3335C5.84555 3.3335 6.31281 3.52607 6.66665 3.84276" stroke="#15AE73" stroke-width="1.4" stroke-linecap="round" stroke-linejoin="round"/>
</svg>
